PathFileType	3	(X/Y/Z)	D:\VICON_DB\Goncalves\Pilot01\09-03-2026\bw_sq_01.trc
DataRate	CameraRate	NumFrames	NumMarkers	Units	OrigDataRate	OrigDataStartFrame	OrigNumFrames
200.0	200.0	13	34	mm	200.0	576	767	
Frame#	Time	LASI			RASI			LPSI			RPSI			LTHI			LTHAP			LTHAD			LKNE			LKNM			LTIB			LTIAP			LTIAD			LANK			LMED			LHEE			LTOE			LFMH			LSMH			LVMH			RTHI			RTHAP			RTHAD			RKNE			RKNM			RTIB			RTIAP			RTIAD			RANK			RMED			RHEE			RTOE			RFMH			RSMH			RVMH			
		X1	Y1	Z1	X2	Y2	Z2	X3	Y3	Z3	X4	Y4	Z4	X5	Y5	Z5	X6	Y6	Z6	X7	Y7	Z7	X8	Y8	Z8	X9	Y9	Z9	X10	Y10	Z10	X11	Y11	Z11	X12	Y12	Z12	X13	Y13	Z13	X14	Y14	Z14	X15	Y15	Z15	X16	Y16	Z16	X17	Y17	Z17	X18	Y18	Z18	X19	Y19	Z19	X20	Y20	Z20	X21	Y21	Z21	X22	Y22	Z22	X23	Y23	Z23	X24	Y24	Z24	X25	Y25	Z25	X26	Y26	Z26	X27	Y27	Z27	X28	Y28	Z28	X29	Y29	Z29	X30	Y30	Z30	X31	Y31	Z31	X32	Y32	Z32	X33	Y33	Z33	X34	Y34	Z34	
576	2.875	261.263	736.87286	-1077.3097	263.87411	744.66083	-1334.3562				438.2059	837.88336	-1232.9751	214.32906	640.81451	-1024.6086	265.57532	677.6297	-1018.6002	208.08466	571.42236	-987.48871	129.92297	430.65613	-988.39948				187.70107	249.46255	-985.64825	97.88916	307.20212	-1031.615	159.28824	213.89902	-1018.45	279.25937	65.792801	-1030.4828				322.37866	68.292397	-1082.072	202.30199	70.646706	-1048.8138	148.04457	46.096596	-1075.048				163.91531	24.975771	-996.64734	200.312	564.45569	-1389.2142	244.16191	675.58698	-1366.3943	180.57742	624.03186	-1342.8657	135.4709	443.02151	-1369.2738				160.77974	259.49246	-1379.2034	102.23817	296.62274	-1326.7128	142.72095	223.3486	-1324.5126	287.87488	62.410763	-1352.8121				325.26175	63.083023	-1308.324	200.17369	68.231865	-1332.1246	151.2458	49.319843	-1309.8586				165.63359	21.493143	-1382.5316
577	2.88	260.04572	739.99213	-1077.0403	262.59641	747.81067	-1334.1705				437.0213	840.66632	-1232.8728	213.24057	642.20398	-1024.5165	264.33154	679.5451	-1018.4985	207.56526	572.73987	-987.49506	130.56433	431.31299	-988.66827				188.27928	249.85078	-985.75488	98.706589	307.78809	-1031.7715	159.71706	214.30722	-1018.464	279.31912	65.810379	-1030.4447				322.43643	68.270569	-1082.0129	202.33061	70.633354	-1048.7742	148.08948	46.034866	-1075.0624				163.89342	24.977304	-996.57684	199.92378	565.76062	-1389.1638	242.83591	677.30365	-1366.3032	179.65538	625.1347	-1342.8584	136.1248	443.75699	-1369.2384				161.48471	259.92926	-1379.2642	103.04964	297.19611	-1326.819	143.25487	223.7935	-1324.6198	287.91031	62.408974	-1352.8453				325.27771	63.063526	-1308.3524	200.16371	68.211105	-1332.2025	151.22171	49.303322	-1309.9174				165.61911	21.397486	-1382.594
578	2.885	258.80814	743.08997	-1076.7747	261.29767	750.95374	-1333.9919				435.83414	843.43378	-1232.7679	212.14551	643.5824	-1024.4438	263.07297	681.44928	-1018.4135	207.03453	574.05682	-987.5141	131.20749	431.97195	-988.95081				188.86067	250.24232	-985.86566	99.534027	308.379	-1031.9404	160.15041	214.72054	-1018.4844	279.37772	65.828163	-1030.4037				322.49524	68.247948	-1081.9487	202.36162	70.621742	-1048.7329	148.13588	45.973385	-1075.0746				163.87129	24.982004	-996.49689	199.53336	567.06439	-1389.0979	241.50902	679.00812	-1366.2018	178.73886	626.22894	-1342.8296	136.78676	444.49542	-1369.1787				162.19725	260.37006	-1379.3046	103.87405	297.77448	-1326.9003	143.79955	224.24312	-1324.7085	287.94833	62.408615	-1352.8735				325.29688	63.042759	-1308.3776	200.15486	68.191246	-1332.2775	151.20166	49.288128	-1309.9694				165.60605	21.313206	-1382.6509
579	2.89	257.54913	746.16779	-1076.5156	259.97913	754.08893	-1333.8202				434.64471	846.18451	-1232.6602	211.04387	644.94867	-1024.3911	261.79874	683.34216	-1018.3452	206.49277	575.37219	-987.54547	131.8531	432.63293	-989.24713				189.44609	250.63768	-985.98077	100.37145	308.97449	-1032.1218	160.5894	215.13927	-1018.5115	279.43506	65.846619	-1030.3595				322.5553	68.22451	-1081.8804	202.39517	70.61235	-1048.6901	148.18353	45.913288	-1075.0837				163.84863	24.989397	-996.40942	199.1407	568.36652	-1389.0159	240.18176	680.70032	-1366.0895	177.82831	627.31396	-1342.778	137.45705	445.23621	-1369.0939				162.91763	260.81537	-1379.325	104.71178	298.35785	-1326.9563	144.35493	224.6974	-1324.7787	287.98907	62.409779	-1352.8966				325.31909	63.020737	-1308.3994	200.14685	68.172729	-1332.3489	151.18547	49.274139	-1310.0148				165.59418	21.239635	-1382.7028
580	2.895	256.26743	749.22742	-1076.2659	258.64224	757.21509	-1333.655				433.4538	848.91669	-1232.5497	209.93602	646.3017	-1024.3582	260.50839	685.22345	-1018.2942	205.9406	576.68494	-987.58917	132.502	433.29553	-989.55713				190.03642	251.03735	-986.10052	101.21885	309.57422	-1032.3151	161.03506	215.56367	-1018.5453	279.49097	65.866226	-1030.3119				322.61673	68.200333	-1081.8077	202.43138	70.60553	-1048.646	148.23227	45.855495	-1075.0906				163.82515	24.998995	-996.31635	198.74591	569.66608	-1388.9175	238.85474	682.37988	-1365.9661	176.92413	628.38983	-1342.7036	138.136	445.97858	-1368.9838				163.64609	261.26611	-1379.3259	105.56316	298.94638	-1326.9871	144.92099	225.15639	-1324.8304	288.03256	62.412525	-1352.9135				325.34399	62.997482	-1308.4178	200.13925	68.156197	-1332.4166	151.17271	49.261196	-1310.0537				165.58308	21.17606	-1382.7498
581	2.9	254.96199	752.271	-1076.0275	257.28888	760.33051	-1333.4958				432.26181	851.62909	-1232.4359	208.82271	647.64026	-1024.3452	259.2019	687.09326	-1018.2605	205.37903	577.99408	-987.64447	133.15515	433.95956	-989.88098				190.63248	251.4416	-986.22516	102.07622	310.17776	-1032.5197	161.48848	215.99387	-1018.5853	279.5455	65.887337	-1030.261				322.67953	68.175476	-1081.7322	202.47025	70.601616	-1048.6006	148.28189	45.800735	-1075.0946				163.80057	25.010241	-996.22003	198.34923	570.9621	-1388.8021	237.52863	684.04694	-1365.8317	176.02679	629.45624	-1342.6061	138.82407	446.72186	-1368.8478				164.38275	261.72305	-1379.3087	106.42841	299.54022	-1326.9928	145.49753	225.62006	-1324.8645	288.07889	62.416946	-1352.924				325.37137	62.973038	-1308.4324	200.13155	68.14225	-1332.4811	151.1629	49.249126	-1310.0863				165.57245	21.121834	-1382.7925
582	2.905	253.63243	755.30048	-1075.8033	255.92101	763.43372	-1333.3425				431.06897	854.32043	-1232.3191	207.70494	648.96362	-1024.3521	257.87982	688.95135	-1018.2443	204.80919	579.29858	-987.71143	133.81358	434.62488	-990.21808				191.23506	251.85063	-986.35504	102.94359	310.78482	-1032.7352	161.95067	216.42986	-1018.6316	279.59879	65.910332	-1030.207				322.74396	68.149994	-1081.6538	202.5117	70.600761	-1048.5542	148.33229	45.749496	-1075.0961				163.7747	25.022539	-996.12286	197.95108	572.25354	-1388.6698	236.20419	685.70111	-1365.686	175.13681	630.5127	-1342.4858	139.52158	447.46545	-1368.6863				165.12773	262.18686	-1379.2742	107.30766	300.13956	-1326.974	146.08427	226.08849	-1324.8818	288.12784	62.423069	-1352.928				325.4007	62.947414	-1308.4431	200.12332	68.131348	-1332.5415	151.1555	49.237747	-1310.1124				165.56181	21.076389	-1382.8308
583	2.91	252.27875	758.3175	-1075.5951	254.54092	766.52301	-1333.1946				429.87482	856.98993	-1232.1997	206.58403	650.27081	-1024.3792	256.54303	690.79803	-1018.2458	204.23248	580.59747	-987.78931	134.47849	435.29123	-990.5683				191.84489	252.26456	-986.4903	103.82102	311.39481	-1032.9611	162.42258	216.87155	-1018.6837	279.65094	65.935532	-1030.1501				322.80988	68.123917	-1081.574	202.55557	70.603043	-1048.5071	148.38333	45.702057	-1075.0953				163.74747	25.035273	-996.02698	197.55199	573.53943	-1388.5208	234.88231	687.34235	-1365.53	174.25478	631.55914	-1342.3436	140.22885	448.20889	-1368.5004				165.88103	262.65799	-1379.2239	108.20097	300.74429	-1326.9321	146.68085	226.56158	-1324.8831	288.17935	62.43092	-1352.9248				325.43167	62.920647	-1308.4498	200.11435	68.123703	-1332.5981	151.14989	49.226864	-1310.1326				165.55075	21.039122	-1382.8654
584	2.915	250.9017	761.32385	-1075.4039	253.1505	769.59656	-1333.052				428.67902	859.63641	-1232.0779	205.4615	651.56128	-1024.4263	255.19299	692.63318	-1018.265	203.65045	581.88995	-987.87793	135.151	435.95847	-990.93085				192.46257	252.68329	-986.63092	104.70863	312.00751	-1033.196	162.90506	217.31863	-1018.7413	279.70215	65.963158	-1030.0909				322.87732	68.097252	-1081.4929	202.60168	70.608337	-1048.4597	148.4348	45.658482	-1075.0927				163.71893	25.04781	-995.93433	197.15256	574.81885	-1388.3546	233.56396	688.97028	-1365.3635	173.38129	632.59509	-1342.1805	140.94624	448.95187	-1368.2905				166.64259	263.13675	-1379.1587	109.10828	301.35455	-1326.8679	147.28687	227.03934	-1324.8699	288.23315	62.440475	-1352.9149				325.46393	62.892696	-1308.4532	200.10458	68.119347	-1332.6506	151.14558	49.216301	-1310.1467				165.53905	21.009277	-1382.8958
585	2.92	249.50273	764.32043	-1075.2306	251.75142	772.65277	-1332.9148				427.48114	862.25854	-1231.9543	204.33908	652.83459	-1024.493	253.83151	694.45654	-1018.3018	203.06473	583.17548	-987.97668	135.83234	436.62659	-991.30505				193.08862	253.10663	-986.77698	105.60654	312.62268	-1033.4397	163.39877	217.77083	-1018.8038	279.75266	65.993279	-1030.0294				322.94614	68.069969	-1081.4115	202.64975	70.616402	-1048.4125	148.48643	45.618652	-1075.089				163.68944	25.059446	-995.84662	196.75352	576.09094	-1388.1726	232.25031	690.58447	-1365.1873	172.51703	633.62018	-1341.9978	141.67392	449.69434	-1368.059				167.41238	263.62292	-1379.0808	110.02951	301.97028	-1326.7836	147.90195	227.52158	-1324.8433	288.28903	62.451691	-1352.8984				325.49713	62.863583	-1308.4532	200.09401	68.118095	-1332.6995	151.14223	49.205853	-1310.1547				165.52654	20.985973	-1382.922
586	2.925	248.08408	767.3075	-1075.0751	250.34526	775.68951	-1332.7828				426.2811	864.85443	-1231.8295	203.21863	654.09076	-1024.5793	252.46075	696.26788	-1018.3558	202.47699	584.45361	-988.08502	136.52374	437.29541	-991.69031				193.72345	253.53426	-986.92853	106.51492	313.2402	-1033.691	163.90411	218.22768	-1018.8713	279.80261	66.025826	-1029.9667				323.01605	68.042015	-1081.3304	202.69943	70.626862	-1048.3656	148.53792	45.58231	-1075.0842				163.6595	25.069399	-995.76544	196.35573	577.35468	-1387.9757	230.94252	692.18488	-1365.0022	171.66278	634.63422	-1341.7969	142.41225	450.43634	-1367.8069				168.19041	264.11633	-1378.9916	110.96454	302.59122	-1326.6805	148.52585	228.00819	-1324.8053	288.3468	62.464497	-1352.8763				325.5311	62.833317	-1308.4502	200.08296	68.119522	-1332.7444	151.13954	49.195351	-1310.1572				165.51334	20.968218	-1382.944
587	2.93	246.64857	770.28491	-1074.9365	248.93343	778.70526	-1332.6561				425.07898	867.42267	-1231.7042	202.10201	655.33044	-1024.6843	251.08307	698.06702	-1018.4265	201.88899	585.72375	-988.20233	137.2263	437.96487	-992.08606				194.36732	253.96573	-987.08533	107.43388	313.86002	-1033.9493	164.42128	218.68872	-1018.9431	279.85214	66.060646	-1029.903				323.08679	68.013245	-1081.2505	202.75038	70.639236	-1048.3197	148.58894	45.549049	-1075.0795				163.62978	25.076864	-995.69183	195.96005	578.60938	-1387.7649	229.64168	693.77094	-1364.8085	170.81926	635.63666	-1341.5795	143.16154	451.17819	-1367.5366				168.97684	264.61633	-1378.8932	111.91321	303.21719	-1326.561	149.15826	228.49893	-1324.7571	288.40601	62.478817	-1352.849				325.5657	62.801956	-1308.4448	200.07185	68.122932	-1332.7855	151.13742	49.184658	-1310.1541				165.4996	20.954924	-1382.9618
588	2.935	245.19939	773.25146	-1074.8141	247.51729	781.69788	-1332.5343				423.87515	869.96155	-1231.5792	200.99109	656.55408	-1024.8068	249.70113	699.85321	-1018.5129	201.30243	586.98602	-988.328	137.94109	438.63513	-992.49127				195.02031	254.40056	-987.24731	108.36357	314.48227	-1034.2137	164.95007	219.15366	-1019.0192	279.90143	66.097572	-1029.8386				323.15808	67.983459	-1081.172	202.80217	70.653023	-1048.2753	148.63911	45.518452	-1075.0751				163.60086	25.08123	-995.62659	195.56743	579.85449	-1387.5422	228.34879	695.34277	-1364.6069	169.98721	636.62732	-1341.3474	143.92235	451.91986	-1367.2506				169.77193	265.12216	-1378.7867	112.87534	303.84793	-1326.4275	149.79897	228.99361	-1324.7007	288.46655	62.49456	-1352.8185				325.60095	62.7696	-1308.4381	200.06123	68.127678	-1332.8232	151.13582	49.173676	-1310.1461				165.48557	20.944994	-1382.975
